<svg width="72" height="78" viewBox="0 0 72 78" fill="none" xmlns="http://www.w3.org/2000/svg">
<circle cx="33" cy="35" r="32.5" fill="#799B94" stroke="#F3E9E9"/>
<g filter="url(#filter0_d_210_15)">
<mask id="path-2-outside-1_210_15" maskUnits="userSpaceOnUse" x="31" y="0" width="37" height="70" fill="black">
<rect fill="white" x="31" width="37" height="70"/>
<path d="M33 2C37.3336 2 41.6248 2.85357 45.6286 4.51198C49.6323 6.17038 53.2702 8.60114 56.3345 11.6655C59.3989 14.7298 61.8296 18.3677 63.488 22.3715C65.1464 26.3752 66 30.6664 66 35C66 39.3336 65.1464 43.6248 63.488 47.6286C61.8296 51.6323 59.3989 55.2702 56.3345 58.3345C53.2702 61.3989 49.6323 63.8296 45.6285 65.488C41.6248 67.1464 37.3336 68 33 68V67.9861C37.3318 67.9861 41.6212 67.1329 45.6232 65.4752C49.6253 63.8175 53.2616 61.3877 56.3247 58.3247C59.3877 55.2617 61.8175 51.6253 63.4752 47.6232C65.1329 43.6212 65.9861 39.3318 65.9861 35C65.9861 30.6682 65.1329 26.3788 63.4752 22.3768C61.8175 18.3747 59.3877 14.7384 56.3247 11.6753C53.2617 8.61227 49.6253 6.18253 45.6232 4.52483C41.6212 2.86712 37.3318 2.01391 33 2.01391V2Z"/>
</mask>
<path d="M33 2C37.3336 2 41.6248 2.85357 45.6286 4.51198C49.6323 6.17038 53.2702 8.60114 56.3345 11.6655C59.3989 14.7298 61.8296 18.3677 63.488 22.3715C65.1464 26.3752 66 30.6664 66 35C66 39.3336 65.1464 43.6248 63.488 47.6286C61.8296 51.6323 59.3989 55.2702 56.3345 58.3345C53.2702 61.3989 49.6323 63.8296 45.6285 65.488C41.6248 67.1464 37.3336 68 33 68V67.9861C37.3318 67.9861 41.6212 67.1329 45.6232 65.4752C49.6253 63.8175 53.2616 61.3877 56.3247 58.3247C59.3877 55.2617 61.8175 51.6253 63.4752 47.6232C65.1329 43.6212 65.9861 39.3318 65.9861 35C65.9861 30.6682 65.1329 26.3788 63.4752 22.3768C61.8175 18.3747 59.3877 14.7384 56.3247 11.6753C53.2617 8.61227 49.6253 6.18253 45.6232 4.52483C41.6212 2.86712 37.3318 2.01391 33 2.01391V2Z" fill="#E5CAB7"/>
<path d="M33 2C37.3336 2 41.6248 2.85357 45.6286 4.51198C49.6323 6.17038 53.2702 8.60114 56.3345 11.6655C59.3989 14.7298 61.8296 18.3677 63.488 22.3715C65.1464 26.3752 66 30.6664 66 35C66 39.3336 65.1464 43.6248 63.488 47.6286C61.8296 51.6323 59.3989 55.2702 56.3345 58.3345C53.2702 61.3989 49.6323 63.8296 45.6285 65.488C41.6248 67.1464 37.3336 68 33 68V67.9861C37.3318 67.9861 41.6212 67.1329 45.6232 65.4752C49.6253 63.8175 53.2616 61.3877 56.3247 58.3247C59.3877 55.2617 61.8175 51.6253 63.4752 47.6232C65.1329 43.6212 65.9861 39.3318 65.9861 35C65.9861 30.6682 65.1329 26.3788 63.4752 22.3768C61.8175 18.3747 59.3877 14.7384 56.3247 11.6753C53.2617 8.61227 49.6253 6.18253 45.6232 4.52483C41.6212 2.86712 37.3318 2.01391 33 2.01391V2Z" stroke="white" stroke-width="4" mask="url(#path-2-outside-1_210_15)"/>
</g>
<path d="M36.952 34.168C37.832 34.568 38.504 35.112 38.968 35.8C39.448 36.472 39.688 37.264 39.688 38.176C39.688 39.2 39.4 40.096 38.824 40.864C38.264 41.632 37.464 42.224 36.424 42.64C35.384 43.04 34.176 43.24 32.8 43.24C31.424 43.24 30.216 43.04 29.176 42.64C28.152 42.224 27.36 41.632 26.8 40.864C26.24 40.096 25.96 39.2 25.96 38.176C25.96 37.264 26.192 36.472 26.656 35.8C27.12 35.112 27.784 34.568 28.648 34.168C27.976 33.8 27.456 33.32 27.088 32.728C26.736 32.12 26.56 31.424 26.56 30.64C26.56 29.696 26.816 28.872 27.328 28.168C27.856 27.464 28.592 26.92 29.536 26.536C30.48 26.152 31.568 25.96 32.8 25.96C34.048 25.96 35.144 26.152 36.088 26.536C37.032 26.92 37.768 27.464 38.296 28.168C38.824 28.872 39.088 29.696 39.088 30.64C39.088 31.424 38.904 32.112 38.536 32.704C38.168 33.296 37.64 33.784 36.952 34.168ZM32.8 28.408C31.824 28.408 31.048 28.616 30.472 29.032C29.912 29.448 29.632 30.032 29.632 30.784C29.632 31.504 29.912 32.08 30.472 32.512C31.048 32.928 31.824 33.136 32.8 33.136C33.792 33.136 34.576 32.928 35.152 32.512C35.728 32.08 36.016 31.504 36.016 30.784C36.016 30.032 35.72 29.448 35.128 29.032C34.552 28.616 33.776 28.408 32.8 28.408ZM32.8 40.792C33.952 40.792 34.864 40.552 35.536 40.072C36.208 39.592 36.544 38.928 36.544 38.08C36.544 37.248 36.208 36.592 35.536 36.112C34.864 35.632 33.952 35.392 32.8 35.392C31.648 35.392 30.744 35.632 30.088 36.112C29.432 36.592 29.104 37.248 29.104 38.08C29.104 38.928 29.432 39.592 30.088 40.072C30.744 40.552 31.648 40.792 32.8 40.792Z" fill="black"/>
<defs>
<filter id="filter0_d_210_15" x="27" y="0" width="45" height="78" filterUnits="userSpaceOnUse" color-interpolation-filters="sRGB">
<feFlood flood-opacity="0" result="BackgroundImageFix"/>
<feColorMatrix in="SourceAlpha" type="matrix" values="0 0 0 0 0 0 0 0 0 0 0 0 0 0 0 0 0 0 127 0" result="hardAlpha"/>
<feOffset dy="4"/>
<feGaussianBlur stdDeviation="2"/>
<feComposite in2="hardAlpha" operator="out"/>
<feColorMatrix type="matrix" values="0 0 0 0 0 0 0 0 0 0 0 0 0 0 0 0 0 0 0.25 0"/>
<feBlend mode="normal" in2="BackgroundImageFix" result="effect1_dropShadow_210_15"/>
<feBlend mode="normal" in="SourceGraphic" in2="effect1_dropShadow_210_15" result="shape"/>
</filter>
</defs>
</svg>
