<svg width="78" height="78" viewBox="0 0 78 78" fill="none" xmlns="http://www.w3.org/2000/svg">
<circle cx="41" cy="35" r="32.5" fill="#8FB0AB" stroke="#F3E9E9"/>
<g filter="url(#filter0_d_210_13)">
<mask id="path-2-outside-1_210_13" maskUnits="userSpaceOnUse" x="4" y="0" width="70" height="70" fill="black">
<rect fill="white" x="4" width="70" height="70"/>
<path d="M39 2C45.5268 2 51.907 3.93542 57.3338 7.5615C62.7606 11.1876 66.9903 16.3415 69.488 22.3714C71.9857 28.4014 72.6392 35.0366 71.3659 41.438C70.0926 47.8394 66.9497 53.7194 62.3345 58.3345C57.7194 62.9497 51.8394 66.0926 45.438 67.3659C39.0366 68.6392 32.4014 67.9857 26.3714 65.488C20.3415 62.9903 15.1876 58.7606 11.5615 53.3338C7.93542 47.907 6 41.5268 6 35H6.01391C6.01391 41.524 7.94851 47.9016 11.5731 53.3261C15.1976 58.7506 20.3493 62.9785 26.3768 65.4752C32.4042 67.9718 39.0366 68.625 45.4353 67.3523C51.8339 66.0795 57.7115 62.9379 62.3247 58.3247C66.9379 53.7115 70.0795 47.8339 71.3523 41.4353C72.625 35.0366 71.9718 28.4042 69.4752 22.3768C66.9785 16.3493 62.7506 11.1976 57.3261 7.57307C51.9016 3.94851 45.524 2.01391 39 2.01391V2Z"/>
</mask>
<path d="M39 2C45.5268 2 51.907 3.93542 57.3338 7.5615C62.7606 11.1876 66.9903 16.3415 69.488 22.3714C71.9857 28.4014 72.6392 35.0366 71.3659 41.438C70.0926 47.8394 66.9497 53.7194 62.3345 58.3345C57.7194 62.9497 51.8394 66.0926 45.438 67.3659C39.0366 68.6392 32.4014 67.9857 26.3714 65.488C20.3415 62.9903 15.1876 58.7606 11.5615 53.3338C7.93542 47.907 6 41.5268 6 35H6.01391C6.01391 41.524 7.94851 47.9016 11.5731 53.3261C15.1976 58.7506 20.3493 62.9785 26.3768 65.4752C32.4042 67.9718 39.0366 68.625 45.4353 67.3523C51.8339 66.0795 57.7115 62.9379 62.3247 58.3247C66.9379 53.7115 70.0795 47.8339 71.3523 41.4353C72.625 35.0366 71.9718 28.4042 69.4752 22.3768C66.9785 16.3493 62.7506 11.1976 57.3261 7.57307C51.9016 3.94851 45.524 2.01391 39 2.01391V2Z" fill="#E5CAB7"/>
<path d="M39 2C45.5268 2 51.907 3.93542 57.3338 7.5615C62.7606 11.1876 66.9903 16.3415 69.488 22.3714C71.9857 28.4014 72.6392 35.0366 71.3659 41.438C70.0926 47.8394 66.9497 53.7194 62.3345 58.3345C57.7194 62.9497 51.8394 66.0926 45.438 67.3659C39.0366 68.6392 32.4014 67.9857 26.3714 65.488C20.3415 62.9903 15.1876 58.7606 11.5615 53.3338C7.93542 47.907 6 41.5268 6 35H6.01391C6.01391 41.524 7.94851 47.9016 11.5731 53.3261C15.1976 58.7506 20.3493 62.9785 26.3768 65.4752C32.4042 67.9718 39.0366 68.625 45.4353 67.3523C51.8339 66.0795 57.7115 62.9379 62.3247 58.3247C66.9379 53.7115 70.0795 47.8339 71.3523 41.4353C72.625 35.0366 71.9718 28.4042 69.4752 22.3768C66.9785 16.3493 62.7506 11.1976 57.3261 7.57307C51.9016 3.94851 45.524 2.01391 39 2.01391V2Z" stroke="white" stroke-width="4" mask="url(#path-2-outside-1_210_13)"/>
</g>
<path d="M28.312 32.704C30.68 32.704 32.432 33.168 33.568 34.096C34.704 35.008 35.272 36.256 35.272 37.84C35.272 38.848 35.024 39.76 34.528 40.576C34.032 41.392 33.288 42.04 32.296 42.52C31.304 43 30.08 43.24 28.624 43.24C27.424 43.24 26.264 43.072 25.144 42.736C24.024 42.384 23.08 41.904 22.312 41.296L23.632 38.872C24.256 39.384 25 39.792 25.864 40.096C26.744 40.384 27.648 40.528 28.576 40.528C29.68 40.528 30.544 40.304 31.168 39.856C31.808 39.392 32.128 38.76 32.128 37.96C32.128 37.096 31.784 36.448 31.096 36.016C30.424 35.568 29.264 35.344 27.616 35.344H23.56L24.424 26.2H34.288V28.816H27.064L26.704 32.704H28.312ZM44.0796 43.24C42.7356 43.24 41.5356 42.904 40.4796 42.232C39.4236 41.544 38.5916 40.552 37.9836 39.256C37.3756 37.944 37.0716 36.392 37.0716 34.6C37.0716 32.808 37.3756 31.264 37.9836 29.968C38.5916 28.656 39.4236 27.664 40.4796 26.992C41.5356 26.304 42.7356 25.96 44.0796 25.96C45.4236 25.96 46.6236 26.304 47.6796 26.992C48.7516 27.664 49.5916 28.656 50.1996 29.968C50.8076 31.264 51.1116 32.808 51.1116 34.6C51.1116 36.392 50.8076 37.944 50.1996 39.256C49.5916 40.552 48.7516 41.544 47.6796 42.232C46.6236 42.904 45.4236 43.24 44.0796 43.24ZM44.0796 40.528C45.2796 40.528 46.2236 40.032 46.9116 39.04C47.6156 38.048 47.9676 36.568 47.9676 34.6C47.9676 32.632 47.6156 31.152 46.9116 30.16C46.2236 29.168 45.2796 28.672 44.0796 28.672C42.8956 28.672 41.9516 29.168 41.2476 30.16C40.5596 31.152 40.2156 32.632 40.2156 34.6C40.2156 36.568 40.5596 38.048 41.2476 39.04C41.9516 40.032 42.8956 40.528 44.0796 40.528Z" fill="black"/>
<defs>
<filter id="filter0_d_210_13" x="0" y="0" width="78" height="78" filterUnits="userSpaceOnUse" color-interpolation-filters="sRGB">
<feFlood flood-opacity="0" result="BackgroundImageFix"/>
<feColorMatrix in="SourceAlpha" type="matrix" values="0 0 0 0 0 0 0 0 0 0 0 0 0 0 0 0 0 0 127 0" result="hardAlpha"/>
<feOffset dy="4"/>
<feGaussianBlur stdDeviation="2"/>
<feComposite in2="hardAlpha" operator="out"/>
<feColorMatrix type="matrix" values="0 0 0 0 0 0 0 0 0 0 0 0 0 0 0 0 0 0 0.25 0"/>
<feBlend mode="normal" in2="BackgroundImageFix" result="effect1_dropShadow_210_13"/>
<feBlend mode="normal" in="SourceGraphic" in2="effect1_dropShadow_210_13" result="shape"/>
</filter>
</defs>
</svg>
