<svg width="71" height="68" viewBox="0 0 71 68" fill="none" xmlns="http://www.w3.org/2000/svg">
<circle cx="33" cy="35" r="32.5" fill="#6A8E84" stroke="#F3E9E9"/>
<g filter="url(#filter0_d_210_16)">
<mask id="path-2-outside-1_210_16" maskUnits="userSpaceOnUse" x="31" y="0" width="36" height="28" fill="black">
<rect fill="white" x="31" width="36" height="28"/>
<path d="M33 2C39.9705 2 46.7619 4.20719 52.4006 8.30509C58.0392 12.403 62.2355 18.1811 64.3876 24.811L64.3744 24.8153C62.2232 18.1882 58.0287 12.4125 52.3924 8.31634C46.7561 4.22017 39.9675 2.01391 33 2.01391V2Z"/>
</mask>
<path d="M33 2C39.9705 2 46.7619 4.20719 52.4006 8.30509C58.0392 12.403 62.2355 18.1811 64.3876 24.811L64.3744 24.8153C62.2232 18.1882 58.0287 12.4125 52.3924 8.31634C46.7561 4.22017 39.9675 2.01391 33 2.01391V2Z" fill="#E5CAB7"/>
<path d="M33 2C39.9705 2 46.7619 4.20719 52.4006 8.30509C58.0392 12.403 62.2355 18.1811 64.3876 24.811L64.3744 24.8153C62.2232 18.1882 58.0287 12.4125 52.3924 8.31634C46.7561 4.22017 39.9675 2.01391 33 2.01391V2Z" stroke="white" stroke-width="4" mask="url(#path-2-outside-1_210_16)"/>
</g>
<path d="M23.224 40.36V43H10.84V40.912L17.512 34.576C18.264 33.856 18.768 33.232 19.024 32.704C19.296 32.16 19.432 31.624 19.432 31.096C19.432 30.312 19.168 29.712 18.64 29.296C18.112 28.88 17.336 28.672 16.312 28.672C14.6 28.672 13.288 29.256 12.376 30.424L10.192 28.744C10.848 27.864 11.728 27.184 12.832 26.704C13.952 26.208 15.2 25.96 16.576 25.96C18.4 25.96 19.856 26.392 20.944 27.256C22.032 28.12 22.576 29.296 22.576 30.784C22.576 31.696 22.384 32.552 22 33.352C21.616 34.152 20.88 35.064 19.792 36.088L15.304 40.36H23.224ZM37.1927 40.36V43H24.8088V40.912L31.4808 34.576C32.2328 33.856 32.7368 33.232 32.9928 32.704C33.2648 32.16 33.4008 31.624 33.4008 31.096C33.4008 30.312 33.1368 29.712 32.6088 29.296C32.0808 28.88 31.3048 28.672 30.2808 28.672C28.5688 28.672 27.2568 29.256 26.3448 30.424L24.1608 28.744C24.8168 27.864 25.6968 27.184 26.8008 26.704C27.9208 26.208 29.1688 25.96 30.5448 25.96C32.3688 25.96 33.8248 26.392 34.9128 27.256C36.0008 28.12 36.5448 29.296 36.5448 30.784C36.5448 31.696 36.3528 32.552 35.9688 33.352C35.5848 34.152 34.8488 35.064 33.7608 36.088L29.2728 40.36H37.1927ZM45.9312 43.24C44.5872 43.24 43.3872 42.904 42.3312 42.232C41.2752 41.544 40.4432 40.552 39.8352 39.256C39.2272 37.944 38.9232 36.392 38.9232 34.6C38.9232 32.808 39.2272 31.264 39.8352 29.968C40.4432 28.656 41.2752 27.664 42.3312 26.992C43.3872 26.304 44.5872 25.96 45.9312 25.96C47.2752 25.96 48.4752 26.304 49.5312 26.992C50.6032 27.664 51.4432 28.656 52.0512 29.968C52.6592 31.264 52.9632 32.808 52.9632 34.6C52.9632 36.392 52.6592 37.944 52.0512 39.256C51.4432 40.552 50.6032 41.544 49.5312 42.232C48.4752 42.904 47.2752 43.24 45.9312 43.24ZM45.9312 40.528C47.1312 40.528 48.0752 40.032 48.7632 39.04C49.4672 38.048 49.8192 36.568 49.8192 34.6C49.8192 32.632 49.4672 31.152 48.7632 30.16C48.0752 29.168 47.1312 28.672 45.9312 28.672C44.7472 28.672 43.8032 29.168 43.0992 30.16C42.4112 31.152 42.0672 32.632 42.0672 34.6C42.0672 36.568 42.4112 38.048 43.0992 39.04C43.8032 40.032 44.7472 40.528 45.9312 40.528Z" fill="black"/>
<defs>
<filter id="filter0_d_210_16" x="27" y="0" width="43.9074" height="35.3352" filterUnits="userSpaceOnUse" color-interpolation-filters="sRGB">
<feFlood flood-opacity="0" result="BackgroundImageFix"/>
<feColorMatrix in="SourceAlpha" type="matrix" values="0 0 0 0 0 0 0 0 0 0 0 0 0 0 0 0 0 0 127 0" result="hardAlpha"/>
<feOffset dy="4"/>
<feGaussianBlur stdDeviation="2"/>
<feComposite in2="hardAlpha" operator="out"/>
<feColorMatrix type="matrix" values="0 0 0 0 0 0 0 0 0 0 0 0 0 0 0 0 0 0 0.25 0"/>
<feBlend mode="normal" in2="BackgroundImageFix" result="effect1_dropShadow_210_16"/>
<feBlend mode="normal" in="SourceGraphic" in2="effect1_dropShadow_210_16" result="shape"/>
</filter>
</defs>
</svg>
