<svg width="72" height="68" viewBox="0 0 72 68" fill="none" xmlns="http://www.w3.org/2000/svg">
<circle cx="35" cy="35" r="32.5" fill="#81A49E" stroke="#F3E9E9"/>
<g filter="url(#filter0_d_210_14)">
<mask id="path-2-outside-1_210_14" maskUnits="userSpaceOnUse" x="31" y="0" width="37" height="48" fill="black">
<rect fill="white" x="31" width="37" height="48"/>
<path d="M33 2C38.2074 2 43.3409 3.23236 47.9808 5.59633C52.6207 7.9603 56.6353 11.3888 59.6964 15.6015C62.7575 19.8141 64.7782 24.6915 65.5932 29.8347C66.4083 34.9779 65.9947 40.241 64.3861 45.1937L64.3729 45.1894C65.9808 40.2388 66.3942 34.9779 65.5795 29.8369C64.7648 24.6958 62.7449 19.8205 59.6851 15.6096C56.6253 11.3987 52.6124 7.97169 47.9745 5.60872C43.3365 3.24575 38.2052 2.01391 33 2.01391V2Z"/>
</mask>
<path d="M33 2C38.2074 2 43.3409 3.23236 47.9808 5.59633C52.6207 7.9603 56.6353 11.3888 59.6964 15.6015C62.7575 19.8141 64.7782 24.6915 65.5932 29.8347C66.4083 34.9779 65.9947 40.241 64.3861 45.1937L64.3729 45.1894C65.9808 40.2388 66.3942 34.9779 65.5795 29.8369C64.7648 24.6958 62.7449 19.8205 59.6851 15.6096C56.6253 11.3987 52.6124 7.97169 47.9745 5.60872C43.3365 3.24575 38.2052 2.01391 33 2.01391V2Z" fill="#E5CAB7"/>
<path d="M33 2C38.2074 2 43.3409 3.23236 47.9808 5.59633C52.6207 7.9603 56.6353 11.3888 59.6964 15.6015C62.7575 19.8141 64.7782 24.6915 65.5932 29.8347C66.4083 34.9779 65.9947 40.241 64.3861 45.1937L64.3729 45.1894C65.9808 40.2388 66.3942 34.9779 65.5795 29.8369C64.7648 24.6958 62.7449 19.8205 59.6851 15.6096C56.6253 11.3987 52.6124 7.97169 47.9745 5.60872C43.3365 3.24575 38.2052 2.01391 33 2.01391V2Z" stroke="white" stroke-width="4" mask="url(#path-2-outside-1_210_14)"/>
</g>
<path d="M32.032 39.184H29.056V43H26.032V39.184H16.816V37.024L25.096 26.2H28.432L20.632 36.544H26.128V33.16H29.056V36.544H32.032V39.184ZM38.5308 32.704C40.8988 32.704 42.6508 33.168 43.7868 34.096C44.9228 35.008 45.4908 36.256 45.4908 37.84C45.4908 38.848 45.2428 39.76 44.7468 40.576C44.2508 41.392 43.5068 42.04 42.5148 42.52C41.5228 43 40.2988 43.24 38.8428 43.24C37.6428 43.24 36.4828 43.072 35.3628 42.736C34.2428 42.384 33.2988 41.904 32.5308 41.296L33.8508 38.872C34.4748 39.384 35.2188 39.792 36.0828 40.096C36.9628 40.384 37.8668 40.528 38.7948 40.528C39.8988 40.528 40.7628 40.304 41.3868 39.856C42.0268 39.392 42.3468 38.76 42.3468 37.96C42.3468 37.096 42.0028 36.448 41.3148 36.016C40.6428 35.568 39.4828 35.344 37.8348 35.344H33.7788L34.6428 26.2H44.5068V28.816H37.2828L36.9228 32.704H38.5308Z" fill="black"/>
<defs>
<filter id="filter0_d_210_14" x="27" y="0" width="45" height="55.7136" filterUnits="userSpaceOnUse" color-interpolation-filters="sRGB">
<feFlood flood-opacity="0" result="BackgroundImageFix"/>
<feColorMatrix in="SourceAlpha" type="matrix" values="0 0 0 0 0 0 0 0 0 0 0 0 0 0 0 0 0 0 127 0" result="hardAlpha"/>
<feOffset dy="4"/>
<feGaussianBlur stdDeviation="2"/>
<feComposite in2="hardAlpha" operator="out"/>
<feColorMatrix type="matrix" values="0 0 0 0 0 0 0 0 0 0 0 0 0 0 0 0 0 0 0.25 0"/>
<feBlend mode="normal" in2="BackgroundImageFix" result="effect1_dropShadow_210_14"/>
<feBlend mode="normal" in="SourceGraphic" in2="effect1_dropShadow_210_14" result="shape"/>
</filter>
</defs>
</svg>
